<?xml version="1.0" encoding="utf-8"?>
<!-- Generator: Adobe Illustrator 28.2.0, SVG Export Plug-In . SVG Version: 6.00 Build 0)  -->
<svg version="1.1" id="uuid-3ed14509-59c3-417c-be3e-1d4bbed63659"
	 xmlns="http://www.w3.org/2000/svg" xmlns:xlink="http://www.w3.org/1999/xlink" x="0px" y="0px" viewBox="0 0 30.1 46.2"
	 style="enable-background:new 0 0 30.1 46.2;" xml:space="preserve">
<style type="text/css">
	.st0{fill:#00B4D8;}
</style>
<g id="uuid-c6bcfbc8-7959-4dbd-9931-61b7a54ea5ab">
	<path id="uuid-d647eb7c-1df9-42ae-a458-cff58479dbe3" class="st0" d="M0,46.1v-46h5.2v46L0,46.1L0,46.1z M7.9,46.1v-46h1.7v22.5
		c0.8-0.4,1.7-1.3,2.5-2.7c0.8-1.4,1.6-2.8,2.1-4.4S15,13,15,12.2c0.2,1.6,0.7,2.9,1.2,3.9c0.6,1,1.2,1.7,1.9,2.1
		c0.7,0.4,1.4,0.6,2.1,0.6c1.7,0,2.8-0.8,3.3-2.4s0.7-3.5,0.7-5.8c0-1,0-2-0.1-2.8s-0.2-1.7-0.4-2.5c-0.2-0.8-0.5-1.6-1-2.3
		c-0.5-0.7-1.1-1.1-1.9-1.4c-0.7-0.2-1.4-0.3-2.1-0.3c-0.6,0-1.2,0.1-1.6,0.3c-0.4,0.2-0.7,0.5-0.7,0.9c0.1,0.3,0.3,0.8,0.7,1.3
		c0.4,0.5,0.7,0.8,0.8,1.1c0.2,0.2,0.2,0.6,0.2,1c0,0.8-0.3,1.5-0.8,2S16.2,9,15.2,9s-1.6-0.3-2.2-1c-0.6-0.7-0.8-1.4-0.9-2.3
		c0.1-1.2,0.5-2.2,1.3-3.1c0.8-0.8,1.7-1.5,2.9-1.9C17.5,0.2,18.7,0,19.9,0c1.3,0,2.6,0.2,3.8,0.7c1.2,0.5,2.3,1.2,3.3,2.1
		c1,0.9,1.7,2,2.3,3.4C29.8,7.5,30,9,30,10.6c0,2.3-0.4,4.2-1.3,5.7c-0.9,1.5-2,2.6-3.3,3.4c-1.4,0.7-2.8,1.1-4.3,1.1
		c-1.6-0.1-2.9-0.5-3.9-1l-2.1,3.4l2.1,3.3c1.4-0.6,2.8-0.9,4.2-0.9c1.7,0,3.2,0.5,4.6,1.5c1.3,1,2.3,2.3,3,3.8c0.7,1.6,1,3.2,1,4.9
		c0,1.8-0.4,3.5-1.2,5.1s-2,2.8-3.5,3.8c-1.5,0.9-3.2,1.4-5.1,1.4c-2.2-0.1-4.1-0.6-5.6-1.6c-1.5-1-2.2-2.4-2.2-4.3
		c0.1-0.9,0.4-1.6,1-2.2c0.6-0.5,1.2-0.8,1.9-0.9c0.8,0,1.6,0.3,2.2,0.9c0.6,0.6,1,1.3,1,2.2c0,0.3-0.1,0.6-0.2,0.9
		c-0.2,0.3-0.4,0.6-0.7,1c-0.3,0.4-0.5,0.6-0.6,0.8c-0.1,0.2-0.2,0.4-0.2,0.7c0,0.3,0.2,0.6,0.7,0.9c0.4,0.2,1,0.4,1.7,0.4
		c2.1-0.1,3.6-1,4.3-2.7c0.7-1.7,1.1-3.9,1.1-6.5c0-2.2-0.2-4.2-0.8-5.9c-0.5-1.7-1.6-2.5-3.3-2.5c-1.5,0-2.7,0.6-3.5,2
		c-0.8,1.3-1.4,2.9-1.6,4.6c-0.2-1.5-0.6-3-1.2-4.3c-0.6-1.4-1.2-2.6-2-3.7c-0.7-1-1.5-1.9-2.4-2.5v22.6L7.9,46.1L7.9,46.1z"/>
</g>
</svg>
