<?xml version="1.0" encoding="UTF-8"?><svg id="uuid-574f52dc-3295-4584-b8b2-923f672504fd" xmlns="http://www.w3.org/2000/svg" viewBox="0 0 60 60"><defs><style>.uuid-1622f5ad-d211-4c72-a6f8-a4d7e017356e{stroke-width:0px;}</style></defs><path class="uuid-1622f5ad-d211-4c72-a6f8-a4d7e017356e" d="M42.38,53.81c4.93-4.19,11.27-12.74,13.31-21.33,2.07-8.7.51-17.58-4.16-23.76-3.71-4.91-9.04-7.69-15.01-7.84-6.83-.17-13.92,2.68-20,8.04-6.04,5.31-10.37,12.48-12.2,20.17-2.04,8.58-.67,16.81,3.74,22.58,3.63,4.74,9.03,7.39,15.2,7.46.17,0,.34,0,.52,0,4.07,0,8.81-.63,10.84-4.8,1.43-2.95,1.91-7.25,1.77-12.09,5.25-5.05,6.4-10.81,4.39-13.37-.51-.66-2.32-2.38-6.04-.51-.33-1.76-.7-3.49-1.09-5.16,2.12-2.39,4.18-6.13,3.62-9.67-.4-2.52-2.01-4.51-4.8-5.93-.81-.41-2.27-.64-2.86-.72-2.02-.28-2.64-.08-3.08.38-.42.44-.51,1.11-.22,1.65,1.25,2.36,2.96,7.47,4.43,13.5-14.29,14.7-11.61,20.86-9.77,22.84,2.66,2.86,8.06,2.38,12.82-.86-.03,3.56-.48,6.64-1.51,8.77-1.46,3.01-5.56,3.35-8.96,3.3-5.36-.06-10.03-2.35-13.15-6.43-3.92-5.12-5.11-12.52-3.26-20.3C10.4,14.97,23.67,3.24,36.46,3.56c5.16.13,9.78,2.54,12.99,6.79,4.19,5.54,5.57,13.58,3.68,21.5-2.15,9.03-9.89,17.74-14.12,21.47,0,0,0,0,0,0-.04.03-.07.07-.11.11-.02.03-.05.05-.08.08-.02.03-.03.06-.05.08-.03.05-.06.1-.09.15,0,0,0,0,0,.01-.01.03-.02.05-.03.08-.02.05-.04.1-.05.16-.01.04-.01.08-.02.12,0,.04-.02.09-.02.13,0,.04,0,.09,0,.13,0,.04,0,.09,0,.13,0,.04.02.08.03.12.01.04.02.09.03.13.01.04.03.08.05.12.02.04.03.08.05.12.03.05.06.09.09.13.02.02.03.05.05.07,0,0,0,0,0,0,.03.04.08.07.12.11.03.02.05.05.08.07.03.02.06.04.09.06.05.03.09.06.14.08,0,0,0,0,.01,0,.95.5,2.4-1.17,3.07-1.74ZM38.73,30.53c.8,1.03.42,4.39-2.54,8.03-.2-2.43-.53-4.94-.94-7.43,1.65-1.01,2.97-1.25,3.48-.6ZM29.52,9.56c.73.11,1.48.28,1.77.43,2.01,1.02,3.12,2.32,3.38,3.96.32,2.04-.7,4.27-1.83,5.95-1.1-4.21-2.3-7.86-3.32-10.34ZM22.88,43.39c-1.93-2.08-.73-7.97,8.57-17.9.32,1.45.61,2.93.88,4.42-3.19,2.58-4.63,6.47-4.63,8.52,0,.74.59,1.34,1.32,1.34s1.32-.6,1.32-1.34c0-1.03.78-3.4,2.52-5.36.41,2.73.71,5.45.85,8-4.18,3.54-9.09,4.17-10.82,2.31Z"/></svg>